<?xml version="1.0" encoding="UTF-8"?>
<svg width="500px" height="500px" viewBox="0 0 500 500" xmlns="http://www.w3.org/2000/svg" xmlns:xlink="http://www.w3.org/1999/xlink" version="1.1">
 <!-- Generated by Pixelmator Pro 1.1.5 -->
 <path id="path" d="M179.949 30.156 C157.971 30.156 139.965 48.162 139.965 70.142 L139.965 261.011 C89.176 268.333 49.844 312.279 49.844 365.037 49.844 422.888 97.11 470.156 154.958 470.156 204.208 470.156 245.69 435.896 256.95 390.028 L409.859 390.028 C431.838 390.028 449.844 372.022 449.844 350.042 L449.844 130.12 C449.844 108.141 431.838 90.134 409.859 90.134 L399.863 90.134 399.863 70.142 C399.863 48.162 381.857 30.156 359.879 30.156 L179.949 30.156 Z M179.949 50.148 L359.879 50.148 C371.127 50.148 379.871 58.892 379.871 70.142 L379.871 300.061 C379.871 311.309 371.127 320.053 359.879 320.053 L249.766 320.053 C243.343 306.612 234.124 294.633 222.901 285.065 L349.882 285.065 C353.492 285.123 356.852 283.23 358.673 280.114 360.494 276.997 360.494 273.141 358.673 270.025 356.852 266.908 353.492 265.015 349.883 265.073 L189.945 265.073 C189.633 265.058 189.32 265.058 189.008 265.073 188.588 265.098 188.171 265.15 187.758 265.228 178.937 262.318 169.622 260.525 159.957 260.074 L159.957 70.141 C159.957 58.892 168.701 50.148 179.949 50.148 Z M189.008 85.136 C185.436 85.304 182.226 87.364 180.585 90.54 178.945 93.717 179.123 97.528 181.054 100.537 182.985 103.546 186.374 105.297 189.945 105.13 L349.882 105.13 C353.487 105.18 356.839 103.285 358.656 100.172 360.472 97.058 360.472 93.208 358.656 90.094 356.839 86.981 353.487 85.087 349.883 85.137 L189.945 85.136 C189.633 85.122 189.32 85.122 189.008 85.136 Z M399.863 110.128 L409.859 110.128 C421.108 110.128 429.851 118.872 429.851 130.12 L429.851 350.042 C429.851 361.291 421.108 370.036 409.859 370.036 L259.918 370.036 C259.994 368.4 260.074 366.69 260.074 365.037 260.074 356.437 258.917 348.056 256.95 340.046 L359.879 340.046 C381.857 340.046 399.863 322.039 399.863 300.061 L399.863 110.128 Z M204.002 145.115 C200.431 145.283 197.22 147.343 195.579 150.519 193.939 153.696 194.117 157.506 196.048 160.516 197.979 163.525 201.368 165.275 204.939 165.108 L334.888 165.108 C338.493 165.158 341.845 163.264 343.661 160.15 345.479 157.037 345.479 153.186 343.661 150.073 341.845 146.959 338.493 145.065 334.888 145.115 L204.939 145.115 C204.627 145.1 204.314 145.1 204.002 145.115 Z M204.002 205.094 C200.419 205.245 197.19 207.302 195.538 210.486 193.887 213.67 194.067 217.494 196.008 220.51 197.95 223.526 201.357 225.272 204.939 225.087 L334.888 225.087 C338.493 225.137 341.845 223.242 343.661 220.129 345.479 217.016 345.479 213.165 343.661 210.051 341.845 206.938 338.493 205.044 334.888 205.094 L204.939 205.094 C204.627 205.079 204.314 205.079 204.002 205.094 Z M154.958 280.224 C202.003 280.224 239.769 317.991 239.769 365.037 239.769 412.083 202.003 449.85 154.958 449.85 107.914 449.85 70.148 412.083 70.148 365.037 70.148 317.991 107.914 280.224 154.958 280.224 Z M144.963 310.057 C120.238 310.057 99.98 330.315 99.98 355.041 99.98 379.766 120.237 400.025 144.963 400.025 153.738 400.025 161.915 397.394 168.859 392.996 L192.913 417.05 C195.435 419.643 199.162 420.671 202.657 419.738 206.152 418.804 208.87 416.056 209.765 412.551 210.659 409.046 209.59 405.33 206.97 402.836 L183.073 378.938 C187.444 372.008 189.945 363.787 189.945 355.04 189.945 330.315 169.688 310.057 144.963 310.057 Z M144.963 330.05 C158.882 330.05 169.953 341.121 169.953 355.041 169.953 368.961 158.882 380.032 144.963 380.032 131.042 380.032 119.973 368.961 119.973 355.041 119.973 341.121 131.042 330.05 144.963 330.05 Z" fill="#000000" fill-opacity="1" stroke="none"/>
</svg>
